<?xml version="1.0" encoding="utf-8"?>
<!-- Generator: Adobe Illustrator 16.0.0, SVG Export Plug-In . SVG Version: 6.00 Build 0)  -->
<!DOCTYPE svg PUBLIC "-//W3C//DTD SVG 1.1//EN" "http://www.w3.org/Graphics/SVG/1.1/DTD/svg11.dtd">
<svg version="1.1" id="Layer_7" xmlns="http://www.w3.org/2000/svg" xmlns:xlink="http://www.w3.org/1999/xlink" x="0px" y="0px"
	 width="100px" height="100px" viewBox="0 0 100 100" enable-background="new 0 0 100 100" xml:space="preserve">
<path fill-rule="evenodd" clip-rule="evenodd" d="M50,1.125C23.008,1.125,1.125,23.007,1.125,50S23.008,98.875,50,98.875
	S98.875,76.993,98.875,50S76.992,1.125,50,1.125z M20.211,63.661c-0.573-4.572-0.228-11.016,0.343-13.539
	c0.63-2.793,2.18-3.49,4.83-2.428c5.235,2.097,10.455,4.228,15.673,6.365c1.648,0.676,2.373,1.845,2.301,3.545
	c-0.07,1.612-0.868,2.631-2.58,3.176c-5.497,1.751-10.992,3.508-16.504,5.212C22.082,66.67,20.701,65.924,20.211,63.661z
	 M49.861,86.439c-0.024,2.21-1.158,3.387-3.349,3.17c-4.886-0.483-9.396-2.148-13.441-4.922c-1.833-1.257-1.98-2.873-0.563-4.581
	c3.749-4.514,7.537-8.996,11.336-13.469c1.063-1.252,2.487-1.531,4.018-0.924c1.432,0.569,2.093,1.56,2.101,3.25
	c0.015,2.913,0.004,5.825,0.004,8.738c-0.031,0-0.063,0-0.097,0C49.869,80.614,49.895,83.527,49.861,86.439z M49.854,45.877
	c-0.672,2.43-3.088,3.142-5.004,1.484c-0.773-0.669-1.434-1.52-1.985-2.388c-5.294-8.316-10.557-16.652-15.819-24.988
	c-1.52-2.407-1.217-3.859,1.333-5.153c5.047-2.562,10.414-4.109,16.075-4.45c2.699-0.162,3.648,0.744,3.835,3.416
	c0.663,9.53,1.291,19.062,1.957,28.939C50.15,43.569,50.16,44.768,49.854,45.877z M56.306,49.41
	c3.451-4.679,6.88-9.376,10.356-14.037c1.489-1.996,3.108-2.189,4.949-0.479c3.42,3.176,5.975,6.989,7.607,11.361
	c0.884,2.366,0.102,3.749-2.336,4.376c-5.544,1.426-11.104,2.792-16.66,4.175c-0.334,0.083-0.684,0.102-0.962,0.141
	c-1.51-0.042-2.541-0.76-3.204-1.992C55.406,51.743,55.469,50.544,56.306,49.41z M79.273,72.663
	c-1.886,3.721-4.442,6.931-7.575,9.677c-0.483,0.424-1.044,0.79-1.624,1.067c-1.365,0.651-2.632,0.381-3.429-0.879
	c-3.293-5.208-6.552-10.437-9.768-15.692c-0.825-1.353-0.406-2.698,0.557-3.852c0.921-1.103,2.118-1.519,3.503-1.06
	c5.683,1.879,11.355,3.786,17.031,5.685c1.295,0.433,2.033,1.28,2.115,2.746C79.818,71.126,79.638,71.941,79.273,72.663z"/>
</svg>
